<?xml version="1.0" encoding="UTF-8"?>
<svg xmlns="http://www.w3.org/2000/svg" viewBox="0 0 620 200"
     role="img" aria-labelledby="title desc">
  <title id="title">Unshelf</title>
  <desc id="desc">Abundance Basket logo with the unshelf wordmark.</desc>
  <g id="icon" transform="translate(0,10)">
    <ellipse cx="58" cy="84" rx="26" ry="13" fill="#E89A2D"/>
    <line x1="36" y1="84" x2="80" y2="84" stroke="#B26C1C" stroke-width="2" stroke-linecap="round" opacity="0.55"/>
    <path d="M 44 78 Q 58 70, 72 78" stroke="#E89A2D" stroke-width="3" fill="none" stroke-linecap="round"/>
    <path d="M 100 92 Q 100 32, 92 18" stroke="#28602F" stroke-width="3.5" fill="none" stroke-linecap="round"/>
    <ellipse cx="92" cy="30" rx="9" ry="16" fill="#3F8E4A" transform="rotate(-28 92 30)"/>
    <ellipse cx="112" cy="50" rx="8" ry="14" fill="#3F8E4A" transform="rotate(32 112 50)"/>
    <ellipse cx="90" cy="68" rx="7" ry="12" fill="#3F8E4A" transform="rotate(-25 90 68)"/>
    <ellipse cx="142" cy="80" rx="18" ry="17" fill="#FFD27F"/>
    <ellipse cx="136" cy="76" rx="6" ry="5" fill="#E89A2D" opacity="0.55"/>
    <path d="M 142 64 Q 144 58, 150 56" stroke="#28602F" stroke-width="2.5" fill="none" stroke-linecap="round"/>
    <ellipse cx="152" cy="56" rx="5" ry="9" fill="#3F8E4A" transform="rotate(45 152 56)"/>
    <path d="M 28 96 Q 28 162, 100 162 Q 172 162, 172 96" stroke="#3F8E4A" stroke-width="12" fill="none" stroke-linecap="round"/>
    <ellipse cx="100" cy="96" rx="72" ry="9" fill="#3F8E4A"/>
    <ellipse cx="100" cy="93" rx="60" ry="3.5" fill="#28602F" opacity="0.5"/>
    <path d="M 40 122 Q 100 130, 160 122" stroke="#28602F" stroke-width="3" fill="none" stroke-linecap="round" opacity="0.35"/>
    <path d="M 46 142 Q 100 148, 154 142" stroke="#28602F" stroke-width="3" fill="none" stroke-linecap="round" opacity="0.35"/>
  </g>
  <g id="wordmark">
    <text x="220" y="138" font-family="DM Serif Display, 'Times New Roman', serif" font-size="120" font-weight="400" fill="#28602F">unshelf</text>
  </g>
</svg>
