<?xml version="1.0" encoding="UTF-8"?>
<svg xmlns="http://www.w3.org/2000/svg" viewBox="0 0 200 200"
     role="img" aria-labelledby="title desc">
  <title id="title">Unshelf icon (monochrome light)</title>
  <desc id="desc">Square icon, monochrome light, for use on dark surfaces.</desc>
  <defs>
    <style>
      .fill-cream { fill: #FFFDF6; }
      .stroke-cream { stroke: #FFFDF6; fill: none; stroke-linecap: round; }
    </style>
  </defs>

  <g id="icon" transform="translate(0,10)">
    <ellipse cx="58" cy="84" rx="26" ry="13" class="fill-cream"/>
    <line x1="36" y1="84" x2="80" y2="84" class="stroke-cream" stroke-width="2" opacity="0.5"/>
    <path d="M 44 78 Q 58 70, 72 78" class="stroke-cream" stroke-width="3"/>

    <path d="M 100 92 Q 100 32, 92 18" class="stroke-cream" stroke-width="3.5"/>
    <ellipse cx="92" cy="30" rx="9" ry="16" class="fill-cream" transform="rotate(-28 92 30)"/>
    <ellipse cx="112" cy="50" rx="8" ry="14" class="fill-cream" transform="rotate(32 112 50)"/>
    <ellipse cx="90" cy="68" rx="7" ry="12" class="fill-cream" transform="rotate(-25 90 68)"/>

    <ellipse cx="142" cy="80" rx="18" ry="17" class="fill-cream" opacity="0.85"/>
    <ellipse cx="136" cy="76" rx="6" ry="5" class="fill-cream" opacity="0.5"/>
    <path d="M 142 64 Q 144 58, 150 56" class="stroke-cream" stroke-width="2.5"/>
    <ellipse cx="152" cy="56" rx="5" ry="9" class="fill-cream" transform="rotate(45 152 56)"/>

    <path d="M 28 96 Q 28 162, 100 162 Q 172 162, 172 96" class="stroke-cream" stroke-width="12"/>
    <ellipse cx="100" cy="96" rx="72" ry="9" class="fill-cream"/>
    <path d="M 40 122 Q 100 130, 160 122" class="stroke-cream" stroke-width="3" opacity="0.5"/>
    <path d="M 46 142 Q 100 148, 154 142" class="stroke-cream" stroke-width="3" opacity="0.5"/>
  </g>
</svg>
