<?xml version="1.0" encoding="UTF-8"?>
<svg xmlns="http://www.w3.org/2000/svg" viewBox="0 0 620 200"
     role="img" aria-labelledby="title desc">
  <title id="title">Unshelf</title>
  <desc id="desc">A market basket overflowing with a pan de sal, a leafy sprig, and a mango. The wordmark "unshelf" sits to the right in DM Serif Display.</desc>
  <defs>
    <style>
      .primary { fill: #3F8E4A; }
      .primary-dark { fill: #28602F; }
      .accent { fill: #E89A2D; }
      .accent-dark { fill: #B26C1C; }
      .highlight { fill: #FFD27F; }
      .stroke-primary { stroke: #3F8E4A; fill: none; stroke-linecap: round; }
      .stroke-primary-dark { stroke: #28602F; fill: none; stroke-linecap: round; }
      .stroke-accent { stroke: #E89A2D; fill: none; stroke-linecap: round; }
      .wordmark-text { fill: #28602F; font-family: 'DM Serif Display', 'Times New Roman', serif; font-size: 120px; font-weight: 400; }
    </style>
  </defs>

  <g id="icon" transform="translate(0,10)">
    <!-- Pan de sal (left) — drawn first so basket rim sits in front -->
    <ellipse cx="58" cy="84" rx="26" ry="13" class="accent"/>
    <line x1="36" y1="84" x2="80" y2="84" class="stroke-accent" stroke="#B26C1C" stroke-width="2" opacity="0.55"/>
    <path d="M 44 78 Q 58 70, 72 78" class="stroke-accent" stroke-width="3"/>

    <!-- Sprig (center) -->
    <path d="M 100 92 Q 100 32, 92 18" class="stroke-primary-dark" stroke-width="3.5"/>
    <ellipse cx="92" cy="30" rx="9" ry="16" class="primary" transform="rotate(-28 92 30)"/>
    <ellipse cx="112" cy="50" rx="8" ry="14" class="primary" transform="rotate(32 112 50)"/>
    <ellipse cx="90" cy="68" rx="7" ry="12" class="primary" transform="rotate(-25 90 68)"/>

    <!-- Mango (right) -->
    <ellipse cx="142" cy="80" rx="18" ry="17" class="highlight"/>
    <ellipse cx="136" cy="76" rx="6" ry="5" class="accent" opacity="0.55"/>
    <path d="M 142 64 Q 144 58, 150 56" class="stroke-primary-dark" stroke-width="2.5"/>
    <ellipse cx="152" cy="56" rx="5" ry="9" class="primary" transform="rotate(45 152 56)"/>

    <!-- Basket -->
    <path d="M 28 96 Q 28 162, 100 162 Q 172 162, 172 96" class="stroke-primary" stroke-width="12"/>
    <ellipse cx="100" cy="96" rx="72" ry="9" class="primary"/>
    <ellipse cx="100" cy="93" rx="60" ry="3.5" class="primary-dark" opacity="0.5"/>
    <path d="M 40 122 Q 100 130, 160 122" class="stroke-primary-dark" stroke-width="3" opacity="0.35"/>
    <path d="M 46 142 Q 100 148, 154 142" class="stroke-primary-dark" stroke-width="3" opacity="0.35"/>
  </g>

  <g id="wordmark">
    <text x="220" y="138" class="wordmark-text">unshelf</text>
  </g>
</svg>
